# xmcd
# 
# Track frame offsets:
#     150
#     8776
#     20378
#     35635
#     46840
#     61653
#     79063
#     90685
#     107366
#     118589
#     128626
#     139003
#     154805
#     163990
#     178546
#     194577
#     206942
#     220927
#     226964
#     238315
#     251365
#     264608
#     279302
#     295539
#     301870
# 
# Disc length: 4138
# 
# Revision: 0
# Processed by: cddbd v1.5.2PL0 Copyright (c) Steve Scherf et al.
# Submitted via: fre:ac v1.0.17
# 
DISCID=59102819
DTITLE=Hoyt Axton - SouthBound - Fearless
DYEAR=1975
DGENRE=Country
TTITLE0=I Love to Sing
TTITLE1=Southbound
TTITLE2=Lion in the Winter
TTITLE3=Blind Fiddler
TTITLE4=Pride of Man
TTITLE5=Greensleeves
TTITLE6=No No Song
TTITLE7=Nashville
TTITLE8=Speed Trap (Out of State Cars)
TTITLE9=Roll Your Own
TTITLE10=Whiskey
TTITLE11=In a Young Girl's Mind
TTITLE12=Sometimes it's Easy
TTITLE13=Idol of the Band
TTITLE14=Evangelina
TTITLE15=Flash of Fire
TTITLE16=Lay Lady Lay
TTITLE17=Jealous Man
TTITLE18=Paid in Advance
TTITLE19=An Old Greyhound
TTITLE20=A Stone and a Feather
TTITLE21=Gypsy Moth
TTITLE22=Beyond These Walls
TTITLE23=Penny Whistle Song
TTITLE24=The Devil
EXTD=
EXTT0=
EXTT1=
EXTT2=
EXTT3=
EXTT4=
EXTT5=
EXTT6=
EXTT7=
EXTT8=
EXTT9=
EXTT10=
EXTT11=
EXTT12=
EXTT13=
EXTT14=
EXTT15=
EXTT16=
EXTT17=
EXTT18=
EXTT19=
EXTT20=
EXTT21=
EXTT22=
EXTT23=
EXTT24=
PLAYORDER=
